<?xml version="1.0" encoding="UTF-8" standalone="no"?>
<!-- Created with Inkscape (http://www.inkscape.org/) -->

<svg
   width="322.09671mm"
   height="83.946747mm"
   viewBox="0 0 322.09671 83.946748"
   version="1.1"
   id="svg1"
   inkscape:version="1.4 (86a8ad7, 2024-10-11)"
   sodipodi:docname="integration.svg"
   inkscape:export-batch-path="C:\Users\caban\One\Documents\03 Aufgaben\66 Trainings\05 How we develop MotionWise\doc\source\img\1"
   inkscape:export-batch-name="page"
   xmlns:inkscape="http://www.inkscape.org/namespaces/inkscape"
   xmlns:sodipodi="http://sodipodi.sourceforge.net/DTD/sodipodi-0.dtd"
   xmlns="http://www.w3.org/2000/svg"
   xmlns:svg="http://www.w3.org/2000/svg">
  <sodipodi:namedview
     id="namedview1"
     pagecolor="#ffffff"
     bordercolor="#000000"
     borderopacity="0.25"
     inkscape:showpageshadow="2"
     inkscape:pageopacity="0.0"
     inkscape:pagecheckerboard="0"
     inkscape:deskcolor="#d1d1d1"
     inkscape:document-units="mm"
     inkscape:zoom="0.52032068"
     inkscape:cx="780.28803"
     inkscape:cy="23.0627"
     inkscape:window-width="1920"
     inkscape:window-height="1028"
     inkscape:window-x="-6"
     inkscape:window-y="-6"
     inkscape:window-maximized="1"
     inkscape:current-layer="layer1"
     showgrid="false">
    <inkscape:page
       x="0"
       y="1.9154924e-15"
       width="322.09671"
       height="83.946747"
       id="page1"
       margin="0 0 0"
       bleed="0"
       inkscape:label="codebase" />
  </sodipodi:namedview>
  <defs
     id="defs1" />
  <g
     inkscape:label="Ebene 1"
     inkscape:groupmode="layer"
     id="layer1"
     transform="translate(33.439467,-104.60323)">
    <path
       d="M -24.837359,151.93907 H 276.68445 v 0.52916 H -24.837359 Z m 299.518909,-1.19857 2.50825,1.46315 -2.50825,1.46341 c -0.127,0.0736 -0.28839,0.031 -0.36247,-0.0952 -0.0741,-0.12621 -0.0317,-0.28839 0.0953,-0.36195 l 2.11666,-1.23481 v 0.4572 l -2.11666,-1.23481 c -0.127,-0.0736 -0.16934,-0.23548 -0.0953,-0.36169 0.0741,-0.1262 0.23547,-0.16906 0.36247,-0.0952 z"
       fill="#156082"
       id="path1"
       style="stroke-width:0.264583" />
    <path
       d="m 38.662641,151.93907 c 0,-1.16893 0.947737,-2.11667 2.116666,-2.11667 1.168929,0 2.116667,0.94774 2.116667,2.11667 0,1.16893 -0.947738,2.11666 -2.116667,2.11666 -1.168929,0 -2.116666,-0.94773 -2.116666,-2.11666 z"
       stroke="#042433"
       stroke-width="0.529167"
       stroke-miterlimit="8"
       fill="#156082"
       fill-rule="evenodd"
       id="path2" />
    <path
       d="m 72.264724,151.93907 c 0,-1.16893 0.947737,-2.11667 2.116666,-2.11667 1.168929,0 2.116667,0.94774 2.116667,2.11667 0,1.16893 -0.947738,2.11666 -2.116667,2.11666 -1.168929,0 -2.116666,-0.94773 -2.116666,-2.11666 z"
       stroke="#042433"
       stroke-width="0.529167"
       stroke-miterlimit="8"
       fill="#156082"
       fill-rule="evenodd"
       id="path3" />
    <path
       d="m 116.45014,151.93907 c 0,-1.16893 0.94774,-2.11667 2.11667,-2.11667 1.16893,0 2.11666,0.94774 2.11666,2.11667 0,1.16893 -0.94773,2.11666 -2.11666,2.11666 -1.16893,0 -2.11667,-0.94773 -2.11667,-2.11666 z"
       stroke="#042433"
       stroke-width="0.529167"
       stroke-miterlimit="8"
       fill="#156082"
       fill-rule="evenodd"
       id="path4" />
    <path
       d="m 182.86056,151.93907 c 0,-1.16893 0.94773,-2.11667 2.11666,-2.11667 1.16893,0 2.11667,0.94774 2.11667,2.11667 0,1.16893 -0.94774,2.11666 -2.11667,2.11666 -1.16893,0 -2.11666,-0.94773 -2.11666,-2.11666 z"
       stroke="#042433"
       stroke-width="0.529167"
       stroke-miterlimit="8"
       fill="#156082"
       fill-rule="evenodd"
       id="path5" />
    <path
       d="m 263.50083,151.93907 c 0,-1.16893 0.94721,-2.11667 2.11667,-2.11667 1.16946,0 2.11667,0.94774 2.11667,2.11667 0,1.16893 -0.94721,2.11666 -2.11667,2.11666 -1.16946,0 -2.11667,-0.94773 -2.11667,-2.11666 z"
       stroke="#042433"
       stroke-width="0.529167"
       stroke-miterlimit="8"
       fill="#156082"
       fill-rule="evenodd"
       id="path6" />
    <path
       d="m 74.645974,136.85782 v 11.09609 h -0.529167 v -11.09609 z m 0.79375,10.7434 -1.058334,2.11667 -1.058333,-2.11667 z"
       fill="#156082"
       id="path7"
       style="stroke-width:0.264583" />
    <path
       d="m 41.04389,167.44947 6e-6,-2.11667 h -0.529168 l -4e-6,2.11667 z m 8e-6,-3.70417 6e-6,-2.11666 h -0.529168 l -5e-6,2.11666 z m 8e-6,-3.70416 3e-6,-2.11667 h -0.529165 l -5e-6,2.11667 z m 8e-6,-3.70417 v -0.51734 h -0.529166 l -10e-7,0.51734 z m 0.79375,-0.16454 -1.058329,-2.11667 -1.058338,2.11667 z"
       fill="#156082"
       id="path10"
       style="stroke-width:0.264583" />
    <path
       d="m 118.83139,167.44947 1e-5,-2.11667 h -0.52917 v 2.11667 z m 1e-5,-3.70417 1e-5,-2.11666 h -0.52917 l -1e-5,2.11666 z m 1e-5,-3.70416 v -2.11667 h -0.52916 l -1e-5,2.11667 z m 10e-6,-3.70417 v -0.51734 h -0.52917 v 0.51734 z m 0.79375,-0.16454 -1.05833,-2.11667 -1.05834,2.11667 z"
       fill="#156082"
       id="path11"
       style="stroke-width:0.264583" />
    <path
       d="m 185.2418,167.44947 10e-6,-2.11667 h -0.52917 v 2.11667 z m 10e-6,-3.70417 1e-5,-2.11666 h -0.52917 l -1e-5,2.11666 z m 1e-5,-3.70416 v -2.11667 h -0.52916 l -1e-5,2.11667 z m 1e-5,-3.70417 v -0.51734 h -0.52917 v 0.51734 z m 0.79375,-0.16454 -1.05833,-2.11667 -1.05834,2.11667 z"
       fill="#156082"
       id="path12"
       style="stroke-width:0.264583" />
    <path
       d="m 265.88208,167.44947 1e-5,-2.11667 h -0.52917 v 2.11667 z m 1e-5,-3.70417 10e-6,-2.11666 h -0.52917 l -1e-5,2.11666 z m 10e-6,-3.70416 v -2.11667 h -0.52916 l -10e-6,2.11667 z m 1e-5,-3.70417 v -0.51734 h -0.52917 v 0.51734 z m 0.79375,-0.16454 -1.05833,-2.11667 -1.05834,2.11667 z"
       fill="#156082"
       id="path13"
       style="stroke-width:0.264583" />
    <path
       style="font-size:10.5833px;font-family:Centaur;-inkscape-font-specification:Centaur;stroke-width:0.2794"
       d="m 60.350857,118.84123 h -0.971514 v -3.28661 q 0,-0.37207 -0.03617,-0.7183 -0.03101,-0.34623 -0.139525,-0.55294 -0.118856,-0.2222 -0.341064,-0.33589 -0.222208,-0.11369 -0.640786,-0.11369 -0.408242,0 -0.816485,0.20671 -0.408242,0.20153 -0.816485,0.51676 0.0155,0.11885 0.02584,0.27905 0.01033,0.15503 0.01033,0.31006 v 3.69485 h -0.971514 v -3.28661 q 0,-0.3824 -0.03617,-0.72347 -0.03101,-0.34623 -0.139526,-0.55293 -0.118856,-0.22221 -0.341064,-0.33073 -0.222208,-0.11369 -0.640785,-0.11369 -0.397908,0 -0.800983,0.19637 -0.397907,0.19637 -0.795814,0.50126 v 4.3098 h -0.971514 v -5.77224 h 0.971514 v 0.64079 q 0.454751,-0.37724 0.904335,-0.58911 0.454751,-0.21187 0.966346,-0.21187 0.589109,0 0.997352,0.24804 0.41341,0.24805 0.614947,0.6873 0.58911,-0.4961 1.074867,-0.71314 0.485757,-0.2222 1.038693,-0.2222 0.950843,0 1.400427,0.57877 0.454751,0.57361 0.454751,1.60713 z m 6.759256,-5.77224 -3.369293,7.9013 h -1.038693 l 1.074867,-2.40811 -2.299594,-5.49319 h 1.054196 l 1.772496,4.2788 1.787998,-4.2788 z m 9.260387,5.41051 q -0.485757,0.23254 -0.925005,0.36173 -0.43408,0.12919 -0.925005,0.12919 -0.625283,0 -1.147213,-0.18087 -0.52193,-0.18603 -0.894,-0.5581 -0.377236,-0.37207 -0.583941,-0.94051 -0.206706,-0.56844 -0.206706,-1.32808 0,-1.41593 0.775145,-2.22208 0.780311,-0.80615 2.056715,-0.80615 0.496092,0 0.971514,0.13953 0.480589,0.13953 0.878496,0.34106 v 1.08004 h -0.05168 q -0.444416,-0.34623 -0.919837,-0.53227 -0.470255,-0.18603 -0.919838,-0.18603 -0.82682,0 -1.30741,0.5581 -0.475421,0.55294 -0.475421,1.6278 0,1.04386 0.465086,1.60713 0.470254,0.55811 1.317745,0.55811 0.294555,0 0.599445,-0.0775 0.30489,-0.0775 0.547768,-0.20153 0.211873,-0.10852 0.397907,-0.22738 0.186035,-0.12402 0.294555,-0.21187 h 0.05168 z m 6.164978,-2.52181 q 0,1.41077 -0.723468,2.22725 -0.723467,0.81649 -1.93786,0.81649 -1.224727,0 -1.948195,-0.81649 -0.7183,-0.81648 -0.7183,-2.22725 0,-1.41076 0.7183,-2.22724 0.723468,-0.82165 1.948195,-0.82165 1.214393,0 1.93786,0.82165 0.723468,0.81648 0.723468,2.22724 z m -1.002519,0 q 0,-1.12137 -0.439249,-1.66397 -0.439248,-0.54777 -1.21956,-0.54777 -0.790646,0 -1.229895,0.54777 -0.43408,0.5426 -0.43408,1.66397 0,1.08521 0.439248,1.64848 0.439248,0.5581 1.224727,0.5581 0.775144,0 1.214393,-0.55293 0.444416,-0.55811 0.444416,-1.65365 z m 7.188169,2.88354 h -0.971514 v -0.60461 q -0.418577,0.36173 -0.873329,0.56327 -0.454751,0.20154 -0.987016,0.20154 -1.033526,0 -1.643306,-0.79582 -0.604612,-0.79581 -0.604612,-2.20657 0,-0.73381 0.206705,-1.30741 0.211873,-0.57361 0.568439,-0.97669 0.351399,-0.39273 0.816485,-0.59944 0.470254,-0.2067 0.971514,-0.2067 0.454751,0 0.80615,0.0982 0.351398,0.093 0.73897,0.29455 v -2.50113 h 0.971514 z m -0.971514,-1.4211 v -3.31245 q -0.392739,-0.17569 -0.702797,-0.24287 -0.310057,-0.0672 -0.676959,-0.0672 -0.816485,0 -1.271236,0.56844 -0.454751,0.56843 -0.454751,1.6123 0,1.02835 0.351398,1.56579 0.351399,0.53226 1.126543,0.53226 0.41341,0 0.837155,-0.18086 0.423746,-0.18604 0.790647,-0.47543 z m 7.715267,-1.36425 h -4.252957 q 0,0.53227 0.160196,0.93017 0.160197,0.39274 0.439248,0.64596 0.268717,0.24804 0.635618,0.37207 0.37207,0.12402 0.816486,0.12402 0.589109,0 1.183386,-0.23254 0.599445,-0.23772 0.852658,-0.46509 h 0.05168 v 1.05936 q -0.490925,0.20671 -1.00252,0.34623 -0.511595,0.13953 -1.074866,0.13953 -1.4366,0 -2.24275,-0.77514 -0.80615,-0.78032 -0.80615,-2.21175 0,-1.41593 0.769976,-2.24792 0.775144,-0.83198 2.036045,-0.83198 1.167884,0 1.798334,0.68212 0.635619,0.68213 0.635619,1.93786 z m -0.945676,-0.74414 q -0.0052,-0.76481 -0.387572,-1.18338 -0.377237,-0.41858 -1.152381,-0.41858 -0.780312,0 -1.245398,0.45992 -0.459919,0.45991 -0.52193,1.14204 z"
       id="text1"
       aria-label="my code" />
    <path
       style="font-size:10.5833px;font-family:Centaur;-inkscape-font-specification:Centaur;stroke-width:0.2794"
       d="M 78.831834,177.51503 H 77.86032 v -3.28661 q 0,-0.37207 -0.03617,-0.7183 -0.031,-0.34623 -0.139526,-0.55294 -0.118855,-0.2222 -0.341063,-0.33589 -0.222208,-0.11369 -0.640786,-0.11369 -0.408242,0 -0.816485,0.2067 -0.408242,0.20154 -0.816485,0.51677 0.0155,0.11885 0.02584,0.27905 0.01034,0.15503 0.01034,0.31006 v 3.69485 h -0.971514 v -3.28661 q 0,-0.38241 -0.03617,-0.72347 -0.031,-0.34623 -0.139526,-0.55293 -0.118855,-0.22221 -0.341063,-0.33073 -0.222208,-0.11369 -0.640786,-0.11369 -0.397907,0 -0.800982,0.19637 -0.397907,0.19637 -0.795814,0.50126 v 4.3098 h -0.971514 v -5.77224 h 0.971514 v 0.64079 q 0.454751,-0.37724 0.904334,-0.58911 0.454752,-0.21188 0.966347,-0.21188 0.589109,0 0.997352,0.24805 0.41341,0.24805 0.614947,0.68729 0.58911,-0.49609 1.074867,-0.71313 0.485756,-0.22221 1.038693,-0.22221 0.950843,0 1.400426,0.57878 0.454752,0.57361 0.454752,1.60713 z m 6.759256,-5.77224 -3.369293,7.9013 h -1.038693 l 1.074866,-2.40811 -2.299593,-5.49319 h 1.054195 l 1.772496,4.2788 1.787999,-4.2788 z m 9.260387,5.41051 q -0.485757,0.23254 -0.925005,0.36173 -0.434081,0.12919 -0.925005,0.12919 -0.625283,0 -1.147213,-0.18087 -0.521931,-0.18603 -0.894,-0.5581 -0.377237,-0.37207 -0.583942,-0.94051 -0.206705,-0.56844 -0.206705,-1.32808 0,-1.41593 0.775144,-2.22208 0.780312,-0.80615 2.056716,-0.80615 0.496092,0 0.971514,0.13953 0.480589,0.13952 0.878496,0.34106 v 1.08004 h -0.05168 q -0.444416,-0.34624 -0.919838,-0.53227 -0.470254,-0.18603 -0.919837,-0.18603 -0.82682,0 -1.30741,0.5581 -0.475421,0.55294 -0.475421,1.6278 0,1.04386 0.465086,1.60713 0.470254,0.55811 1.317745,0.55811 0.294555,0 0.599445,-0.0775 0.304889,-0.0775 0.547768,-0.20153 0.211873,-0.10852 0.397907,-0.22738 0.186035,-0.12402 0.294555,-0.21187 h 0.05168 z m 6.164983,-2.52181 q 0,1.41077 -0.72347,2.22725 -0.72347,0.81649 -1.937863,0.81649 -1.224727,0 -1.948195,-0.81649 -0.7183,-0.81648 -0.7183,-2.22725 0,-1.41076 0.7183,-2.22724 0.723468,-0.82166 1.948195,-0.82166 1.214393,0 1.937863,0.82166 0.72347,0.81648 0.72347,2.22724 z m -1.00252,0 q 0,-1.12137 -0.439253,-1.66397 -0.439248,-0.54777 -1.21956,-0.54777 -0.790647,0 -1.229895,0.54777 -0.434081,0.5426 -0.434081,1.66397 0,1.08521 0.439249,1.64848 0.439248,0.5581 1.224727,0.5581 0.775144,0 1.214393,-0.55294 0.44442,-0.5581 0.44442,-1.65364 z m 3.48814,2.88354 h -0.97151 v -8.04083 h 0.97151 z m 2.90421,0 h -0.97151 v -8.04083 h 0.97151 z m 6.75409,-2.78535 h -4.25296 q 0,0.53226 0.1602,0.93017 0.16019,0.39274 0.43924,0.64596 0.26872,0.24804 0.63562,0.37206 0.37207,0.12403 0.81649,0.12403 0.58911,0 1.18338,-0.23255 0.59945,-0.23771 0.85266,-0.46508 h 0.0517 v 1.05936 q -0.49093,0.20671 -1.00252,0.34623 -0.5116,0.13953 -1.07487,0.13953 -1.4366,0 -2.24275,-0.77515 -0.80615,-0.78031 -0.80615,-2.21174 0,-1.41593 0.76998,-2.24792 0.77514,-0.83199 2.03604,-0.83199 1.16789,0 1.79834,0.68213 0.63562,0.68213 0.63562,1.93786 z m -0.94568,-0.74414 q -0.005,-0.76481 -0.38757,-1.18339 -0.37724,-0.41857 -1.15238,-0.41857 -0.78031,0 -1.2454,0.45992 -0.45992,0.45991 -0.52193,1.14204 z m 6.90395,3.52949 h -0.96635 v -0.61495 q -0.12919,0.0879 -0.35139,0.24805 -0.21704,0.15503 -0.42375,0.24804 -0.24288,0.11886 -0.5581,0.19637 -0.31523,0.0827 -0.73897,0.0827 -0.78032,0 -1.32292,-0.51677 -0.5426,-0.51676 -0.5426,-1.31774 0,-0.65629 0.27905,-1.05936 0.28422,-0.40825 0.80615,-0.64079 0.5271,-0.23254 1.26607,-0.31523 0.73897,-0.0827 1.58646,-0.12402 v -0.14986 q 0,-0.33073 -0.11885,-0.54777 -0.11369,-0.21704 -0.33073,-0.34106 -0.2067,-0.11886 -0.49609,-0.1602 -0.28939,-0.0413 -0.60461,-0.0413 -0.38241,0 -0.85266,0.10335 -0.47026,0.0982 -0.97152,0.28939 h -0.0517 v -0.98702 q 0.28422,-0.0775 0.82165,-0.17053 0.53743,-0.093 1.05936,-0.093 0.60978,0 1.05937,0.10336 0.45475,0.0982 0.78548,0.34106 0.32556,0.23771 0.49609,0.61495 0.17053,0.37724 0.17053,0.93534 z m -0.96635,-1.4211 v -1.60713 q -0.44441,0.0258 -1.04902,0.0775 -0.59945,0.0517 -0.95085,0.14986 -0.41858,0.11885 -0.67696,0.37207 -0.25838,0.24804 -0.25838,0.68729 0,0.49609 0.29972,0.74931 0.29973,0.24804 0.91467,0.24804 0.5116,0 0.93534,-0.19637 0.42375,-0.20154 0.78548,-0.48059 z m 7.5189,0.76481 q 0,1.46761 -0.66662,2.1549 -0.66663,0.6873 -2.05155,0.6873 -0.45992,0 -0.89917,-0.0672 -0.43408,-0.062 -0.85782,-0.18087 v -0.99218 h 0.0517 q 0.23771,0.093 0.75448,0.22737 0.51676,0.13953 1.03352,0.13953 0.49609,0 0.82166,-0.11886 0.32556,-0.11885 0.50642,-0.33073 0.18087,-0.20153 0.25838,-0.48575 0.0775,-0.28422 0.0775,-0.63562 v -0.5271 q -0.43925,0.3514 -0.84232,0.5271 -0.39791,0.17053 -1.01803,0.17053 -1.03352,0 -1.6433,-0.74414 -0.60461,-0.7493 -0.60461,-2.10839 0,-0.74414 0.2067,-1.28157 0.21187,-0.5426 0.57361,-0.93534 0.33589,-0.3669 0.81648,-0.56844 0.48059,-0.20671 0.95601,-0.20671 0.50126,0 0.83716,0.10336 0.34106,0.0982 0.7183,0.30489 l 0.062,-0.24805 h 0.9095 z m -0.97151,-0.93017 v -3.14709 q -0.38757,-0.1757 -0.72347,-0.24804 -0.33073,-0.0775 -0.66146,-0.0775 -0.80098,0 -1.2609,0.53744 -0.45992,0.53743 -0.45992,1.56062 0,0.97151 0.34107,1.47277 0.34106,0.50126 1.13171,0.50126 0.42374,0 0.84749,-0.16019 0.42891,-0.16537 0.78548,-0.43925 z m 7.66876,1.58646 h -0.97152 v -0.64079 q -0.49092,0.38758 -0.94051,0.59428 -0.44958,0.20671 -0.99218,0.20671 -0.9095,0 -1.41593,-0.55294 -0.50643,-0.5581 -0.50643,-1.63297 v -3.74653 h 0.97152 v 3.28661 q 0,0.43925 0.0413,0.75447 0.0413,0.31006 0.1757,0.53227 0.13952,0.22738 0.36173,0.33073 0.22221,0.10335 0.64595,0.10335 0.37724,0 0.82166,-0.19637 0.44958,-0.19637 0.83715,-0.50126 v -4.3098 h 0.97152 z m 6.74375,-2.78535 h -4.25296 q 0,0.53226 0.1602,0.93017 0.1602,0.39274 0.43925,0.64596 0.26872,0.24804 0.63562,0.37206 0.37207,0.12403 0.81648,0.12403 0.58911,0 1.18339,-0.23255 0.59944,-0.23771 0.85266,-0.46508 h 0.0517 v 1.05936 q -0.49092,0.20671 -1.00252,0.34623 -0.51159,0.13953 -1.07486,0.13953 -1.4366,0 -2.24275,-0.77515 -0.80615,-0.78031 -0.80615,-2.21174 0,-1.41593 0.76997,-2.24792 0.77515,-0.83199 2.03605,-0.83199 1.16788,0 1.79833,0.68213 0.63562,0.68213 0.63562,1.93786 z m -0.94567,-0.74414 q -0.005,-0.76481 -0.38758,-1.18339 -0.37723,-0.41857 -1.15238,-0.41857 -0.78031,0 -1.2454,0.45992 -0.45991,0.45991 -0.52193,1.14204 z m 6.54221,1.86551 q 0,0.79065 -0.65629,1.29708 -0.65112,0.50643 -1.78283,0.50643 -0.64079,0 -1.17822,-0.14987 -0.53227,-0.15502 -0.894,-0.33589 v -1.09037 h 0.0517 q 0.45992,0.34623 1.02319,0.55294 0.56328,0.20153 1.08004,0.20153 0.64078,0 1.00252,-0.2067 0.36173,-0.20671 0.36173,-0.65112 0,-0.34107 -0.19637,-0.51677 -0.19637,-0.17569 -0.75447,-0.29972 -0.20671,-0.0465 -0.5426,-0.10852 -0.33073,-0.062 -0.60461,-0.13436 -0.75965,-0.20153 -1.08004,-0.58911 -0.31522,-0.39274 -0.31522,-0.96117 0,-0.35657 0.14469,-0.6718 0.14986,-0.31522 0.44958,-0.56327 0.28939,-0.24288 0.73381,-0.3824 0.44958,-0.1447 1.00252,-0.1447 0.51676,0 1.04386,0.1292 0.53226,0.12402 0.88366,0.30489 v 1.03869 h -0.0517 q -0.37206,-0.27389 -0.90433,-0.45992 -0.53227,-0.1912 -1.04386,-0.1912 -0.53227,0 -0.89917,0.2067 -0.3669,0.20154 -0.3669,0.60461 0,0.35657 0.22221,0.53744 0.21704,0.18087 0.7028,0.29455 0.26871,0.062 0.59944,0.12403 0.3359,0.062 0.5581,0.11368 0.67696,0.15503 1.04387,0.53227 0.3669,0.3824 0.3669,1.01285 z m 9.37924,1.30225 q -0.48576,0.23254 -0.925,0.36173 -0.43409,0.12919 -0.92501,0.12919 -0.62528,0 -1.14721,-0.18087 -0.52193,-0.18603 -0.894,-0.5581 -0.37724,-0.37207 -0.58394,-0.94051 -0.20671,-0.56844 -0.20671,-1.32808 0,-1.41593 0.77514,-2.22208 0.78032,-0.80615 2.05672,-0.80615 0.49609,0 0.97151,0.13953 0.48059,0.13952 0.8785,0.34106 v 1.08004 h -0.0517 q -0.44441,-0.34624 -0.91983,-0.53227 -0.47026,-0.18603 -0.91984,-0.18603 -0.82682,0 -1.30741,0.5581 -0.47542,0.55294 -0.47542,1.6278 0,1.04386 0.46508,1.60713 0.47026,0.55811 1.31775,0.55811 0.29455,0 0.59944,-0.0775 0.30489,-0.0775 0.54777,-0.20153 0.21188,-0.10852 0.39791,-0.22738 0.18603,-0.12402 0.29455,-0.21187 h 0.0517 z m 6.16498,-2.52181 q 0,1.41077 -0.72346,2.22725 -0.72347,0.81649 -1.93786,0.81649 -1.22473,0 -1.9482,-0.81649 -0.7183,-0.81648 -0.7183,-2.22725 0,-1.41076 0.7183,-2.22724 0.72347,-0.82166 1.9482,-0.82166 1.21439,0 1.93786,0.82166 0.72346,0.81648 0.72346,2.22724 z m -1.00252,0 q 0,-1.12137 -0.43924,-1.66397 -0.43925,-0.54777 -1.21956,-0.54777 -0.79065,0 -1.2299,0.54777 -0.43408,0.5426 -0.43408,1.66397 0,1.08521 0.43925,1.64848 0.43925,0.5581 1.22473,0.5581 0.77514,0 1.21439,-0.55294 0.44441,-0.5581 0.44441,-1.65364 z m 7.18817,2.88354 h -0.97152 v -0.60461 q -0.41857,0.36173 -0.87332,0.56327 -0.45476,0.20154 -0.98702,0.20154 -1.03353,0 -1.64331,-0.79582 -0.60461,-0.79581 -0.60461,-2.20657 0,-0.73381 0.20671,-1.30741 0.21187,-0.57361 0.56844,-0.97669 0.35139,-0.39274 0.81648,-0.59944 0.47025,-0.20671 0.97151,-0.20671 0.45476,0 0.80615,0.0982 0.3514,0.093 0.73897,0.29455 v -2.50113 h 0.97152 z m -0.97152,-1.4211 v -3.31245 q -0.39273,-0.1757 -0.70279,-0.24287 -0.31006,-0.0672 -0.67696,-0.0672 -0.81649,0 -1.27124,0.56844 -0.45475,0.56843 -0.45475,1.61229 0,1.02836 0.3514,1.5658 0.3514,0.53226 1.12654,0.53226 0.41341,0 0.83716,-0.18087 0.42374,-0.18603 0.79064,-0.47542 z m 7.71527,-1.36425 h -4.25295 q 0,0.53226 0.16019,0.93017 0.1602,0.39274 0.43925,0.64596 0.26872,0.24804 0.63562,0.37206 0.37207,0.12403 0.81649,0.12403 0.58911,0 1.18338,-0.23255 0.59945,-0.23771 0.85266,-0.46508 h 0.0517 v 1.05936 q -0.49093,0.20671 -1.00252,0.34623 -0.5116,0.13953 -1.07487,0.13953 -1.4366,0 -2.24275,-0.77515 -0.80615,-0.78031 -0.80615,-2.21174 0,-1.41593 0.76998,-2.24792 0.77514,-0.83199 2.03604,-0.83199 1.16789,0 1.79834,0.68213 0.63561,0.68213 0.63561,1.93786 z m -0.94567,-0.74414 q -0.005,-0.76481 -0.38757,-1.18339 -0.37724,-0.41857 -1.15238,-0.41857 -0.78032,0 -1.2454,0.45992 -0.45992,0.45991 -0.52193,1.14204 z"
       id="text1-2"
       aria-label="my colleagues code " />
    <text
       xml:space="preserve"
       style="font-style:normal;font-variant:normal;font-weight:normal;font-stretch:normal;font-size:10.5833px;font-family:Helvetica;-inkscape-font-specification:Helvetica;text-align:start;writing-mode:lr-tb;direction:ltr;text-anchor:start;fill:#000000;stroke-width:0.2794"
       x="51.988617"
       y="131.04526"
       id="text2"><tspan
         sodipodi:role="line"
         id="tspan1"
         style="stroke-width:0.2794"
         x="51.988617"
         y="131.04526">(large feature)</tspan></text>
    <text
       xml:space="preserve"
       style="font-style:normal;font-variant:normal;font-weight:normal;font-stretch:normal;font-size:10.5833px;font-family:Helvetica;-inkscape-font-specification:Helvetica;text-align:start;writing-mode:lr-tb;direction:ltr;text-anchor:start;fill:#000000;stroke-width:0.2794"
       x="216.04425"
       y="169.84079"
       id="text2-2"><tspan
         sodipodi:role="line"
         id="tspan1-4"
         style="stroke-width:0.2794"
         x="216.04425"
         y="169.84079">release</tspan><tspan
         sodipodi:role="line"
         style="stroke-width:0.2794"
         x="216.04425"
         y="183.06992"
         id="tspan8">day</tspan></text>
    <text
       xml:space="preserve"
       style="font-style:normal;font-variant:normal;font-weight:normal;font-stretch:normal;font-size:10.5833px;font-family:Helvetica;-inkscape-font-specification:Helvetica;text-align:start;writing-mode:lr-tb;direction:ltr;text-anchor:start;fill:#000000;stroke-width:0.2794"
       x="144.53775"
       y="176.52141"
       id="text2-2-7"><tspan
         sodipodi:role="line"
         style="stroke-width:0.2794"
         x="144.53775"
         y="176.52141"
         id="tspan8-1">'</tspan></text>
    <path
       style="fill:#1a1a1a;stroke:#1a1a1a;stroke-width:0.2794"
       d="m 221.31929,147.82577 v 8.13601"
       id="path8" />
  </g>
</svg>
