<?xml version="1.0" encoding="UTF-8" standalone="no"?>
<!-- Created with Inkscape (http://www.inkscape.org/) -->

<svg
   width="302.02716mm"
   height="76.572083mm"
   viewBox="0 0 302.02716 76.572084"
   version="1.1"
   id="svg1"
   inkscape:version="1.4 (86a8ad7, 2024-10-11)"
   sodipodi:docname="integration.svg"
   inkscape:export-batch-path="C:\Users\caban\One\Documents\03 Aufgaben\66 Trainings\05 How we develop MotionWise\doc\source\img\1"
   inkscape:export-batch-name="page"
   xmlns:inkscape="http://www.inkscape.org/namespaces/inkscape"
   xmlns:sodipodi="http://sodipodi.sourceforge.net/DTD/sodipodi-0.dtd"
   xmlns="http://www.w3.org/2000/svg"
   xmlns:svg="http://www.w3.org/2000/svg">
  <sodipodi:namedview
     id="namedview1"
     pagecolor="#ffffff"
     bordercolor="#000000"
     borderopacity="0.25"
     inkscape:showpageshadow="2"
     inkscape:pageopacity="0.0"
     inkscape:pagecheckerboard="0"
     inkscape:deskcolor="#d1d1d1"
     inkscape:document-units="mm"
     inkscape:zoom="0.52032068"
     inkscape:cx="780.28803"
     inkscape:cy="23.0627"
     inkscape:window-width="1920"
     inkscape:window-height="1028"
     inkscape:window-x="-6"
     inkscape:window-y="-6"
     inkscape:window-maximized="1"
     inkscape:current-layer="layer1"
     showgrid="false" />
  <defs
     id="defs1" />
  <g
     inkscape:label="Ebene 1"
     inkscape:groupmode="layer"
     id="layer1"
     transform="translate(24.837359,-108.76642)">
    <path
       d="M -24.837359,151.93907 H 276.68445 v 0.52916 H -24.837359 Z m 299.518909,-1.19857 2.50825,1.46315 -2.50825,1.46341 c -0.127,0.0736 -0.28839,0.031 -0.36247,-0.0952 -0.0741,-0.12621 -0.0317,-0.28839 0.0953,-0.36195 l 2.11666,-1.23481 v 0.4572 l -2.11666,-1.23481 c -0.127,-0.0736 -0.16934,-0.23548 -0.0953,-0.36169 0.0741,-0.1262 0.23547,-0.16906 0.36247,-0.0952 z"
       fill="#156082"
       id="path1"
       style="stroke-width:0.264583" />
    <path
       d="m 38.662641,151.93907 c 0,-1.16893 0.947737,-2.11667 2.116666,-2.11667 1.168929,0 2.116667,0.94774 2.116667,2.11667 0,1.16893 -0.947738,2.11666 -2.116667,2.11666 -1.168929,0 -2.116666,-0.94773 -2.116666,-2.11666 z"
       stroke="#042433"
       stroke-width="0.529167"
       stroke-miterlimit="8"
       fill="#156082"
       fill-rule="evenodd"
       id="path2" />
    <path
       d="m 72.264724,151.93907 c 0,-1.16893 0.947737,-2.11667 2.116666,-2.11667 1.168929,0 2.116667,0.94774 2.116667,2.11667 0,1.16893 -0.947738,2.11666 -2.116667,2.11666 -1.168929,0 -2.116666,-0.94773 -2.116666,-2.11666 z"
       stroke="#042433"
       stroke-width="0.529167"
       stroke-miterlimit="8"
       fill="#156082"
       fill-rule="evenodd"
       id="path3" />
    <path
       d="m 116.45014,151.93907 c 0,-1.16893 0.94774,-2.11667 2.11667,-2.11667 1.16893,0 2.11666,0.94774 2.11666,2.11667 0,1.16893 -0.94773,2.11666 -2.11666,2.11666 -1.16893,0 -2.11667,-0.94773 -2.11667,-2.11666 z"
       stroke="#042433"
       stroke-width="0.529167"
       stroke-miterlimit="8"
       fill="#156082"
       fill-rule="evenodd"
       id="path4" />
    <path
       d="m 182.86056,151.93907 c 0,-1.16893 0.94773,-2.11667 2.11666,-2.11667 1.16893,0 2.11667,0.94774 2.11667,2.11667 0,1.16893 -0.94774,2.11666 -2.11667,2.11666 -1.16893,0 -2.11666,-0.94773 -2.11666,-2.11666 z"
       stroke="#042433"
       stroke-width="0.529167"
       stroke-miterlimit="8"
       fill="#156082"
       fill-rule="evenodd"
       id="path5" />
    <path
       d="m 263.50083,151.93907 c 0,-1.16893 0.94721,-2.11667 2.11667,-2.11667 1.16946,0 2.11667,0.94774 2.11667,2.11667 0,1.16893 -0.94721,2.11666 -2.11667,2.11666 -1.16946,0 -2.11667,-0.94773 -2.11667,-2.11666 z"
       stroke="#042433"
       stroke-width="0.529167"
       stroke-miterlimit="8"
       fill="#156082"
       fill-rule="evenodd"
       id="path6" />
    <path
       d="m 74.645974,136.85782 v 11.09609 h -0.529167 v -11.09609 z m 0.79375,10.7434 -1.058334,2.11667 -1.058333,-2.11667 z"
       fill="#156082"
       id="path7"
       style="stroke-width:0.264583" />
    <path
       d="m 41.04389,167.44947 6e-6,-2.11667 h -0.529168 l -4e-6,2.11667 z m 8e-6,-3.70417 6e-6,-2.11666 h -0.529168 l -5e-6,2.11666 z m 8e-6,-3.70416 3e-6,-2.11667 h -0.529165 l -5e-6,2.11667 z m 8e-6,-3.70417 v -0.51734 h -0.529166 l -10e-7,0.51734 z m 0.79375,-0.16454 -1.058329,-2.11667 -1.058338,2.11667 z"
       fill="#156082"
       id="path10"
       style="stroke-width:0.264583" />
    <path
       d="m 118.83139,167.44947 1e-5,-2.11667 h -0.52917 v 2.11667 z m 1e-5,-3.70417 1e-5,-2.11666 h -0.52917 l -1e-5,2.11666 z m 1e-5,-3.70416 v -2.11667 h -0.52916 l -1e-5,2.11667 z m 10e-6,-3.70417 v -0.51734 h -0.52917 v 0.51734 z m 0.79375,-0.16454 -1.05833,-2.11667 -1.05834,2.11667 z"
       fill="#156082"
       id="path11"
       style="stroke-width:0.264583" />
    <path
       d="m 185.2418,167.44947 10e-6,-2.11667 h -0.52917 v 2.11667 z m 10e-6,-3.70417 1e-5,-2.11666 h -0.52917 l -1e-5,2.11666 z m 1e-5,-3.70416 v -2.11667 h -0.52916 l -1e-5,2.11667 z m 1e-5,-3.70417 v -0.51734 h -0.52917 v 0.51734 z m 0.79375,-0.16454 -1.05833,-2.11667 -1.05834,2.11667 z"
       fill="#156082"
       id="path12"
       style="stroke-width:0.264583" />
    <path
       d="m 265.88208,167.44947 1e-5,-2.11667 h -0.52917 v 2.11667 z m 1e-5,-3.70417 10e-6,-2.11666 h -0.52917 l -1e-5,2.11666 z m 10e-6,-3.70416 v -2.11667 h -0.52916 l -10e-6,2.11667 z m 1e-5,-3.70417 v -0.51734 h -0.52917 v 0.51734 z m 0.79375,-0.16454 -1.05833,-2.11667 -1.05834,2.11667 z"
       fill="#156082"
       id="path13"
       style="stroke-width:0.264583" />
    <path
       style="font-size:10.5833px;font-family:Centaur;-inkscape-font-specification:Centaur;stroke-width:0.2794"
       d="m 61.876359,116.80723 h -0.971514 v -3.28661 q 0,-0.37207 -0.03617,-0.7183 -0.03101,-0.34623 -0.139525,-0.55294 -0.118856,-0.2222 -0.341064,-0.33589 -0.222208,-0.11369 -0.640786,-0.11369 -0.408242,0 -0.816485,0.20671 -0.408242,0.20153 -0.816485,0.51676 0.0155,0.11885 0.02584,0.27905 0.01033,0.15503 0.01033,0.31006 v 3.69485 h -0.971514 v -3.28661 q 0,-0.3824 -0.03617,-0.72347 -0.03101,-0.34623 -0.139526,-0.55293 -0.118856,-0.22221 -0.341064,-0.33073 -0.222208,-0.11369 -0.640785,-0.11369 -0.397908,0 -0.800983,0.19637 -0.397907,0.19637 -0.795814,0.50126 v 4.3098 H 53.45313 v -5.77224 h 0.971514 v 0.64079 q 0.454751,-0.37724 0.904335,-0.58911 0.454751,-0.21187 0.966346,-0.21187 0.589109,0 0.997352,0.24804 0.41341,0.24805 0.614947,0.6873 0.58911,-0.4961 1.074867,-0.71314 0.485757,-0.2222 1.038693,-0.2222 0.950843,0 1.400427,0.57877 0.454751,0.57361 0.454751,1.60713 z m 6.759256,-5.77224 -3.369293,7.9013 h -1.038693 l 1.074867,-2.40811 -2.299594,-5.49319 h 1.054196 l 1.772496,4.2788 1.787998,-4.2788 z m 9.260387,5.41051 q -0.485757,0.23254 -0.925005,0.36173 -0.43408,0.12919 -0.925005,0.12919 -0.625283,0 -1.147213,-0.18087 -0.52193,-0.18603 -0.894,-0.5581 -0.377236,-0.37207 -0.583941,-0.94051 -0.206706,-0.56844 -0.206706,-1.32808 0,-1.41593 0.775145,-2.22208 0.780311,-0.80615 2.056715,-0.80615 0.496092,0 0.971514,0.13953 0.480589,0.13953 0.878496,0.34106 v 1.08004 h -0.05168 q -0.444416,-0.34623 -0.919837,-0.53227 -0.470255,-0.18603 -0.919838,-0.18603 -0.82682,0 -1.30741,0.5581 -0.475421,0.55294 -0.475421,1.6278 0,1.04386 0.465086,1.60713 0.470254,0.55811 1.317745,0.55811 0.294555,0 0.599445,-0.0775 0.30489,-0.0775 0.547768,-0.20153 0.211873,-0.10852 0.397907,-0.22738 0.186035,-0.12402 0.294555,-0.21187 h 0.05168 z m 6.164978,-2.52181 q 0,1.41077 -0.723468,2.22725 -0.723467,0.81649 -1.93786,0.81649 -1.224727,0 -1.948195,-0.81649 -0.7183,-0.81648 -0.7183,-2.22725 0,-1.41076 0.7183,-2.22724 0.723468,-0.82165 1.948195,-0.82165 1.214393,0 1.93786,0.82165 0.723468,0.81648 0.723468,2.22724 z m -1.002519,0 q 0,-1.12137 -0.439249,-1.66397 -0.439248,-0.54777 -1.21956,-0.54777 -0.790646,0 -1.229895,0.54777 -0.43408,0.5426 -0.43408,1.66397 0,1.08521 0.439248,1.64848 0.439248,0.5581 1.224727,0.5581 0.775144,0 1.214393,-0.55293 0.444416,-0.55811 0.444416,-1.65365 z m 7.188169,2.88354 h -0.971514 v -0.60461 q -0.418577,0.36173 -0.873329,0.56327 -0.454751,0.20154 -0.987016,0.20154 -1.033526,0 -1.643306,-0.79582 -0.604612,-0.79581 -0.604612,-2.20657 0,-0.73381 0.206705,-1.30741 0.211873,-0.57361 0.568439,-0.97669 0.351399,-0.39273 0.816485,-0.59944 0.470254,-0.2067 0.971514,-0.2067 0.454751,0 0.80615,0.0982 0.351398,0.093 0.73897,0.29455 v -2.50113 h 0.971514 z m -0.971514,-1.4211 v -3.31245 q -0.392739,-0.17569 -0.702797,-0.24287 -0.310057,-0.0672 -0.676959,-0.0672 -0.816485,0 -1.271236,0.56844 -0.454751,0.56843 -0.454751,1.6123 0,1.02835 0.351398,1.56579 0.351399,0.53226 1.126543,0.53226 0.41341,0 0.837155,-0.18086 0.423746,-0.18604 0.790647,-0.47543 z m 7.715267,-1.36425 h -4.252957 q 0,0.53227 0.160196,0.93017 0.160197,0.39274 0.439248,0.64596 0.268717,0.24804 0.635618,0.37207 0.37207,0.12402 0.816486,0.12402 0.589109,0 1.183386,-0.23254 0.599445,-0.23772 0.852658,-0.46509 h 0.05168 v 1.05936 q -0.490925,0.20671 -1.00252,0.34623 -0.511595,0.13953 -1.074866,0.13953 -1.4366,0 -2.24275,-0.77514 -0.80615,-0.78032 -0.80615,-2.21175 0,-1.41593 0.769976,-2.24792 0.775144,-0.83198 2.036045,-0.83198 1.167884,0 1.798334,0.68212 0.635619,0.68213 0.635619,1.93786 z m -0.945676,-0.74414 q -0.0052,-0.76481 -0.387572,-1.18338 -0.377237,-0.41858 -1.152381,-0.41858 -0.780312,0 -1.245398,0.45992 -0.459919,0.45991 -0.52193,1.14204 z"
       id="text1"
       aria-label="my code" />
    <path
       style="font-size:10.5833px;font-family:Centaur;-inkscape-font-specification:Centaur;stroke-width:0.2794"
       d="M 78.831834,177.51503 H 77.86032 v -3.28661 q 0,-0.37207 -0.03617,-0.7183 -0.031,-0.34623 -0.139526,-0.55294 -0.118855,-0.2222 -0.341063,-0.33589 -0.222208,-0.11369 -0.640786,-0.11369 -0.408242,0 -0.816485,0.2067 -0.408242,0.20154 -0.816485,0.51677 0.0155,0.11885 0.02584,0.27905 0.01034,0.15503 0.01034,0.31006 v 3.69485 h -0.971514 v -3.28661 q 0,-0.38241 -0.03617,-0.72347 -0.031,-0.34623 -0.139526,-0.55293 -0.118855,-0.22221 -0.341063,-0.33073 -0.222208,-0.11369 -0.640786,-0.11369 -0.397907,0 -0.800982,0.19637 -0.397907,0.19637 -0.795814,0.50126 v 4.3098 h -0.971514 v -5.77224 h 0.971514 v 0.64079 q 0.454751,-0.37724 0.904334,-0.58911 0.454752,-0.21188 0.966347,-0.21188 0.589109,0 0.997352,0.24805 0.41341,0.24805 0.614947,0.68729 0.58911,-0.49609 1.074867,-0.71313 0.485756,-0.22221 1.038693,-0.22221 0.950843,0 1.400426,0.57878 0.454752,0.57361 0.454752,1.60713 z m 6.759256,-5.77224 -3.369293,7.9013 h -1.038693 l 1.074866,-2.40811 -2.299593,-5.49319 h 1.054195 l 1.772496,4.2788 1.787999,-4.2788 z m 9.260387,5.41051 q -0.485757,0.23254 -0.925005,0.36173 -0.434081,0.12919 -0.925005,0.12919 -0.625283,0 -1.147213,-0.18087 -0.521931,-0.18603 -0.894,-0.5581 -0.377237,-0.37207 -0.583942,-0.94051 -0.206705,-0.56844 -0.206705,-1.32808 0,-1.41593 0.775144,-2.22208 0.780312,-0.80615 2.056716,-0.80615 0.496092,0 0.971514,0.13953 0.480589,0.13952 0.878496,0.34106 v 1.08004 h -0.05168 q -0.444416,-0.34624 -0.919838,-0.53227 -0.470254,-0.18603 -0.919837,-0.18603 -0.82682,0 -1.30741,0.5581 -0.475421,0.55294 -0.475421,1.6278 0,1.04386 0.465086,1.60713 0.470254,0.55811 1.317745,0.55811 0.294555,0 0.599445,-0.0775 0.304889,-0.0775 0.547768,-0.20153 0.211873,-0.10852 0.397907,-0.22738 0.186035,-0.12402 0.294555,-0.21187 h 0.05168 z m 6.164983,-2.52181 q 0,1.41077 -0.72347,2.22725 -0.72347,0.81649 -1.937863,0.81649 -1.224727,0 -1.948195,-0.81649 -0.7183,-0.81648 -0.7183,-2.22725 0,-1.41076 0.7183,-2.22724 0.723468,-0.82166 1.948195,-0.82166 1.214393,0 1.937863,0.82166 0.72347,0.81648 0.72347,2.22724 z m -1.00252,0 q 0,-1.12137 -0.439253,-1.66397 -0.439248,-0.54777 -1.21956,-0.54777 -0.790647,0 -1.229895,0.54777 -0.434081,0.5426 -0.434081,1.66397 0,1.08521 0.439249,1.64848 0.439248,0.5581 1.224727,0.5581 0.775144,0 1.214393,-0.55294 0.44442,-0.5581 0.44442,-1.65364 z m 3.48814,2.88354 h -0.97151 v -8.04083 h 0.97151 z m 2.90421,0 h -0.97151 v -8.04083 h 0.97151 z m 6.75409,-2.78535 h -4.25296 q 0,0.53226 0.1602,0.93017 0.16019,0.39274 0.43924,0.64596 0.26872,0.24804 0.63562,0.37206 0.37207,0.12403 0.81649,0.12403 0.58911,0 1.18338,-0.23255 0.59945,-0.23771 0.85266,-0.46508 h 0.0517 v 1.05936 q -0.49093,0.20671 -1.00252,0.34623 -0.5116,0.13953 -1.07487,0.13953 -1.4366,0 -2.24275,-0.77515 -0.80615,-0.78031 -0.80615,-2.21174 0,-1.41593 0.76998,-2.24792 0.77514,-0.83199 2.03604,-0.83199 1.16789,0 1.79834,0.68213 0.63562,0.68213 0.63562,1.93786 z m -0.94568,-0.74414 q -0.005,-0.76481 -0.38757,-1.18339 -0.37724,-0.41857 -1.15238,-0.41857 -0.78031,0 -1.2454,0.45992 -0.45992,0.45991 -0.52193,1.14204 z m 6.90395,3.52949 h -0.96635 v -0.61495 q -0.12919,0.0879 -0.35139,0.24805 -0.21704,0.15503 -0.42375,0.24804 -0.24288,0.11886 -0.5581,0.19637 -0.31523,0.0827 -0.73897,0.0827 -0.78032,0 -1.32292,-0.51677 -0.5426,-0.51676 -0.5426,-1.31774 0,-0.65629 0.27905,-1.05936 0.28422,-0.40825 0.80615,-0.64079 0.5271,-0.23254 1.26607,-0.31523 0.73897,-0.0827 1.58646,-0.12402 v -0.14986 q 0,-0.33073 -0.11885,-0.54777 -0.11369,-0.21704 -0.33073,-0.34106 -0.2067,-0.11886 -0.49609,-0.1602 -0.28939,-0.0413 -0.60461,-0.0413 -0.38241,0 -0.85266,0.10335 -0.47026,0.0982 -0.97152,0.28939 h -0.0517 v -0.98702 q 0.28422,-0.0775 0.82165,-0.17053 0.53743,-0.093 1.05936,-0.093 0.60978,0 1.05937,0.10336 0.45475,0.0982 0.78548,0.34106 0.32556,0.23771 0.49609,0.61495 0.17053,0.37724 0.17053,0.93534 z m -0.96635,-1.4211 v -1.60713 q -0.44441,0.0258 -1.04902,0.0775 -0.59945,0.0517 -0.95085,0.14986 -0.41858,0.11885 -0.67696,0.37207 -0.25838,0.24804 -0.25838,0.68729 0,0.49609 0.29972,0.74931 0.29973,0.24804 0.91467,0.24804 0.5116,0 0.93534,-0.19637 0.42375,-0.20154 0.78548,-0.48059 z m 7.5189,0.76481 q 0,1.46761 -0.66662,2.1549 -0.66663,0.6873 -2.05155,0.6873 -0.45992,0 -0.89917,-0.0672 -0.43408,-0.062 -0.85782,-0.18087 v -0.99218 h 0.0517 q 0.23771,0.093 0.75448,0.22737 0.51676,0.13953 1.03352,0.13953 0.49609,0 0.82166,-0.11886 0.32556,-0.11885 0.50642,-0.33073 0.18087,-0.20153 0.25838,-0.48575 0.0775,-0.28422 0.0775,-0.63562 v -0.5271 q -0.43925,0.3514 -0.84232,0.5271 -0.39791,0.17053 -1.01803,0.17053 -1.03352,0 -1.6433,-0.74414 -0.60461,-0.7493 -0.60461,-2.10839 0,-0.74414 0.2067,-1.28157 0.21187,-0.5426 0.57361,-0.93534 0.33589,-0.3669 0.81648,-0.56844 0.48059,-0.20671 0.95601,-0.20671 0.50126,0 0.83716,0.10336 0.34106,0.0982 0.7183,0.30489 l 0.062,-0.24805 h 0.9095 z m -0.97151,-0.93017 v -3.14709 q -0.38757,-0.1757 -0.72347,-0.24804 -0.33073,-0.0775 -0.66146,-0.0775 -0.80098,0 -1.2609,0.53744 -0.45992,0.53743 -0.45992,1.56062 0,0.97151 0.34107,1.47277 0.34106,0.50126 1.13171,0.50126 0.42374,0 0.84749,-0.16019 0.42891,-0.16537 0.78548,-0.43925 z m 7.66876,1.58646 h -0.97152 v -0.64079 q -0.49092,0.38758 -0.94051,0.59428 -0.44958,0.20671 -0.99218,0.20671 -0.9095,0 -1.41593,-0.55294 -0.50643,-0.5581 -0.50643,-1.63297 v -3.74653 h 0.97152 v 3.28661 q 0,0.43925 0.0413,0.75447 0.0413,0.31006 0.1757,0.53227 0.13952,0.22738 0.36173,0.33073 0.22221,0.10335 0.64595,0.10335 0.37724,0 0.82166,-0.19637 0.44958,-0.19637 0.83715,-0.50126 v -4.3098 h 0.97152 z m 6.74375,-2.78535 h -4.25296 q 0,0.53226 0.1602,0.93017 0.1602,0.39274 0.43925,0.64596 0.26872,0.24804 0.63562,0.37206 0.37207,0.12403 0.81648,0.12403 0.58911,0 1.18339,-0.23255 0.59944,-0.23771 0.85266,-0.46508 h 0.0517 v 1.05936 q -0.49092,0.20671 -1.00252,0.34623 -0.51159,0.13953 -1.07486,0.13953 -1.4366,0 -2.24275,-0.77515 -0.80615,-0.78031 -0.80615,-2.21174 0,-1.41593 0.76997,-2.24792 0.77515,-0.83199 2.03605,-0.83199 1.16788,0 1.79833,0.68213 0.63562,0.68213 0.63562,1.93786 z m -0.94567,-0.74414 q -0.005,-0.76481 -0.38758,-1.18339 -0.37723,-0.41857 -1.15238,-0.41857 -0.78031,0 -1.2454,0.45992 -0.45991,0.45991 -0.52193,1.14204 z m 6.54221,1.86551 q 0,0.79065 -0.65629,1.29708 -0.65112,0.50643 -1.78283,0.50643 -0.64079,0 -1.17822,-0.14987 -0.53227,-0.15502 -0.894,-0.33589 v -1.09037 h 0.0517 q 0.45992,0.34623 1.02319,0.55294 0.56328,0.20153 1.08004,0.20153 0.64078,0 1.00252,-0.2067 0.36173,-0.20671 0.36173,-0.65112 0,-0.34107 -0.19637,-0.51677 -0.19637,-0.17569 -0.75447,-0.29972 -0.20671,-0.0465 -0.5426,-0.10852 -0.33073,-0.062 -0.60461,-0.13436 -0.75965,-0.20153 -1.08004,-0.58911 -0.31522,-0.39274 -0.31522,-0.96117 0,-0.35657 0.14469,-0.6718 0.14986,-0.31522 0.44958,-0.56327 0.28939,-0.24288 0.73381,-0.3824 0.44958,-0.1447 1.00252,-0.1447 0.51676,0 1.04386,0.1292 0.53226,0.12402 0.88366,0.30489 v 1.03869 h -0.0517 q -0.37206,-0.27389 -0.90433,-0.45992 -0.53227,-0.1912 -1.04386,-0.1912 -0.53227,0 -0.89917,0.2067 -0.3669,0.20154 -0.3669,0.60461 0,0.35657 0.22221,0.53744 0.21704,0.18087 0.7028,0.29455 0.26871,0.062 0.59944,0.12403 0.3359,0.062 0.5581,0.11368 0.67696,0.15503 1.04387,0.53227 0.3669,0.3824 0.3669,1.01285 z m 9.37924,1.30225 q -0.48576,0.23254 -0.925,0.36173 -0.43409,0.12919 -0.92501,0.12919 -0.62528,0 -1.14721,-0.18087 -0.52193,-0.18603 -0.894,-0.5581 -0.37724,-0.37207 -0.58394,-0.94051 -0.20671,-0.56844 -0.20671,-1.32808 0,-1.41593 0.77514,-2.22208 0.78032,-0.80615 2.05672,-0.80615 0.49609,0 0.97151,0.13953 0.48059,0.13952 0.8785,0.34106 v 1.08004 h -0.0517 q -0.44441,-0.34624 -0.91983,-0.53227 -0.47026,-0.18603 -0.91984,-0.18603 -0.82682,0 -1.30741,0.5581 -0.47542,0.55294 -0.47542,1.6278 0,1.04386 0.46508,1.60713 0.47026,0.55811 1.31775,0.55811 0.29455,0 0.59944,-0.0775 0.30489,-0.0775 0.54777,-0.20153 0.21188,-0.10852 0.39791,-0.22738 0.18603,-0.12402 0.29455,-0.21187 h 0.0517 z m 6.16498,-2.52181 q 0,1.41077 -0.72346,2.22725 -0.72347,0.81649 -1.93786,0.81649 -1.22473,0 -1.9482,-0.81649 -0.7183,-0.81648 -0.7183,-2.22725 0,-1.41076 0.7183,-2.22724 0.72347,-0.82166 1.9482,-0.82166 1.21439,0 1.93786,0.82166 0.72346,0.81648 0.72346,2.22724 z m -1.00252,0 q 0,-1.12137 -0.43924,-1.66397 -0.43925,-0.54777 -1.21956,-0.54777 -0.79065,0 -1.2299,0.54777 -0.43408,0.5426 -0.43408,1.66397 0,1.08521 0.43925,1.64848 0.43925,0.5581 1.22473,0.5581 0.77514,0 1.21439,-0.55294 0.44441,-0.5581 0.44441,-1.65364 z m 7.18817,2.88354 h -0.97152 v -0.60461 q -0.41857,0.36173 -0.87332,0.56327 -0.45476,0.20154 -0.98702,0.20154 -1.03353,0 -1.64331,-0.79582 -0.60461,-0.79581 -0.60461,-2.20657 0,-0.73381 0.20671,-1.30741 0.21187,-0.57361 0.56844,-0.97669 0.35139,-0.39274 0.81648,-0.59944 0.47025,-0.20671 0.97151,-0.20671 0.45476,0 0.80615,0.0982 0.3514,0.093 0.73897,0.29455 v -2.50113 h 0.97152 z m -0.97152,-1.4211 v -3.31245 q -0.39273,-0.1757 -0.70279,-0.24287 -0.31006,-0.0672 -0.67696,-0.0672 -0.81649,0 -1.27124,0.56844 -0.45475,0.56843 -0.45475,1.61229 0,1.02836 0.3514,1.5658 0.3514,0.53226 1.12654,0.53226 0.41341,0 0.83716,-0.18087 0.42374,-0.18603 0.79064,-0.47542 z m 7.71527,-1.36425 h -4.25295 q 0,0.53226 0.16019,0.93017 0.1602,0.39274 0.43925,0.64596 0.26872,0.24804 0.63562,0.37206 0.37207,0.12403 0.81649,0.12403 0.58911,0 1.18338,-0.23255 0.59945,-0.23771 0.85266,-0.46508 h 0.0517 v 1.05936 q -0.49093,0.20671 -1.00252,0.34623 -0.5116,0.13953 -1.07487,0.13953 -1.4366,0 -2.24275,-0.77515 -0.80615,-0.78031 -0.80615,-2.21174 0,-1.41593 0.76998,-2.24792 0.77514,-0.83199 2.03604,-0.83199 1.16789,0 1.79834,0.68213 0.63561,0.68213 0.63561,1.93786 z m -0.94567,-0.74414 q -0.005,-0.76481 -0.38757,-1.18339 -0.37724,-0.41857 -1.15238,-0.41857 -0.78032,0 -1.2454,0.45992 -0.45992,0.45991 -0.52193,1.14204 z"
       id="text1-2"
       aria-label="my colleagues code " />
    <path
       d="m 55.120199,123.32999 q -0.811318,1.57613 -1.054196,2.32027 -0.366902,1.13171 -0.366902,2.61481 0,1.49862 0.418578,2.73885 0.258382,0.76481 1.018023,2.20141 h -0.625283 q -0.754474,-1.17822 -0.935341,-1.50378 -0.180867,-0.32556 -0.392739,-0.88367 -0.289387,-0.76481 -0.403075,-1.63297 -0.05684,-0.44958 -0.05684,-0.85782 0,-1.52962 0.480589,-2.72334 0.30489,-0.75964 1.271236,-2.27376 z m 1.100704,0.12402 h 0.930173 v 7.59125 h -0.930173 z m 3.038565,6.11847 q 0,0.40308 0.294555,0.63562 0.294554,0.23255 0.697629,0.23255 0.490925,0 0.950844,-0.22738 0.775144,-0.37724 0.775144,-1.23506 v -0.74931 q -0.170532,0.10852 -0.439249,0.18087 -0.268716,0.0723 -0.527098,0.10335 l -0.563271,0.0724 q -0.506427,0.0672 -0.759641,0.21187 -0.428913,0.24288 -0.428913,0.77514 z m 2.253085,-1.88101 q 0.320393,-0.0413 0.428913,-0.26872 0.06201,-0.12402 0.06201,-0.35657 0,-0.47542 -0.341064,-0.68729 -0.335895,-0.21704 -0.966346,-0.21704 -0.728635,0 -1.033525,0.39274 -0.170532,0.21704 -0.222208,0.64595 h -0.868161 q 0.02584,-1.02319 0.661456,-1.42109 0.640786,-0.40308 1.483109,-0.40308 0.976681,0 1.586461,0.37207 0.604612,0.37207 0.604612,1.15755 v 3.18842 q 0,0.1447 0.05684,0.23255 0.06201,0.0878 0.253214,0.0878 0.06201,0 0.139526,-0.005 0.07751,-0.0103 0.165364,-0.0258 v 0.6873 q -0.21704,0.062 -0.330728,0.0775 -0.113688,0.0155 -0.310058,0.0155 -0.480589,0 -0.697629,-0.34106 -0.113688,-0.18087 -0.160197,-0.5116 -0.284219,0.37207 -0.816485,0.64596 -0.532265,0.27388 -1.173051,0.27388 -0.769976,0 -1.260901,-0.46508 -0.485757,-0.47026 -0.485757,-1.17306 0,-0.76997 0.480589,-1.19372 0.48059,-0.42374 1.260901,-0.52193 z m -0.769976,-2.3151 z m 3.715523,0.13436 h 0.883664 v 0.95601 q 0.108521,-0.27905 0.532266,-0.67696 0.423745,-0.40307 0.976681,-0.40307 0.02584,0 0.08785,0.005 0.06201,0.005 0.211873,0.0207 v 0.98185 q -0.08268,-0.0155 -0.155029,-0.0207 -0.06718,-0.005 -0.149861,-0.005 -0.702797,0 -1.080034,0.45475 -0.377237,0.44958 -0.377237,1.03869 v 3.18326 H 64.4581 Z m 5.451847,-0.0982 q 0.651121,0 1.136878,0.3204 0.263548,0.18086 0.537433,0.5271 v -0.69763 h 0.857826 v 5.03326 q 0,1.0542 -0.310058,1.66398 -0.578774,1.12654 -2.185906,1.12654 -0.893999,0 -1.503779,-0.40307 -0.60978,-0.39791 -0.682127,-1.25057 h 0.945676 q 0.06718,0.37207 0.268716,0.57361 0.315225,0.31006 0.992185,0.31006 1.069698,0 1.400426,-0.75448 0.19637,-0.44441 0.180867,-1.58646 -0.279052,0.42375 -0.671791,0.63045 -0.39274,0.20671 -1.038693,0.20671 -0.899167,0 -1.576126,-0.63562 -0.671792,-0.64079 -0.671792,-2.11356 0,-1.39009 0.676959,-2.1704 0.682127,-0.78032 1.643306,-0.78032 z m 1.674311,2.8422 q 0,-1.02836 -0.423746,-1.52445 -0.423745,-0.49609 -1.080034,-0.49609 -0.981849,0 -1.343583,0.91983 -0.191202,0.49093 -0.191202,1.28674 0,0.93534 0.377237,1.42627 0.382404,0.48576 1.02319,0.48576 1.00252,0 1.410762,-0.90434 0.227376,-0.51159 0.227376,-1.19372 z m -1.565791,-2.87837 z m 6.128805,0.0103 q 0.589109,0 1.142045,0.27905 0.552936,0.27388 0.842323,0.71313 0.279052,0.41858 0.372069,0.97668 0.08268,0.38241 0.08268,1.21956 h -4.056587 q 0.02584,0.84233 0.397908,1.35392 0.372069,0.50643 1.15238,0.50643 0.728636,0 1.162716,-0.48059 0.248046,-0.27905 0.351399,-0.64596 h 0.91467 q -0.03617,0.30489 -0.242879,0.68213 -0.201537,0.37207 -0.454751,0.60978 -0.423745,0.41341 -1.049028,0.55811 -0.335896,0.0827 -0.759641,0.0827 -1.033525,0 -1.751826,-0.74931 -0.7183,-0.75447 -0.7183,-2.10839 0,-1.33325 0.723468,-2.16524 0.723468,-0.83198 1.891352,-0.83198 z m 1.483108,2.44945 q -0.05684,-0.60461 -0.263549,-0.96634 -0.382404,-0.6718 -1.276403,-0.6718 -0.640786,0 -1.074867,0.46509 -0.43408,0.45992 -0.459919,1.17305 z m -1.570958,-2.45979 z m 6.841938,-0.70796 q 0.02067,-0.57878 0.201538,-0.84749 0.32556,-0.47543 1.255733,-0.47543 0.08785,0 0.180867,0.005 0.09302,0.005 0.211873,0.0155 v 0.84749 q -0.144694,-0.0103 -0.211873,-0.0103 -0.06201,-0.005 -0.118855,-0.005 -0.423746,0 -0.506428,0.22221 -0.08268,0.21704 -0.08268,1.11621 h 0.919838 v 0.7338 H 83.8212 v 4.77489 h -0.91984 v -4.77489 h -0.769976 v -0.7338 h 0.769976 z m 5.012599,0.7183 q 0.589109,0 1.142045,0.27905 0.552936,0.27388 0.842324,0.71313 0.279051,0.41858 0.372069,0.97668 0.08268,0.38241 0.08268,1.21956 H 86.29649 q 0.02584,0.84233 0.397907,1.35392 0.372069,0.50643 1.152381,0.50643 0.728635,0 1.162716,-0.48059 0.248046,-0.27905 0.351398,-0.64596 h 0.91467 q -0.03617,0.30489 -0.242878,0.68213 -0.201538,0.37207 -0.454751,0.60978 -0.423746,0.41341 -1.049029,0.55811 -0.335895,0.0827 -0.759641,0.0827 -1.033525,0 -1.751825,-0.74931 -0.7183,-0.75447 -0.7183,-2.10839 0,-1.33325 0.723467,-2.16524 0.723468,-0.83198 1.891352,-0.83198 z m 1.483109,2.44945 q -0.05684,-0.60461 -0.263549,-0.96634 -0.382405,-0.6718 -1.276404,-0.6718 -0.640786,0 -1.074866,0.46509 -0.434081,0.45992 -0.459919,1.17305 z m -1.570959,-2.45979 z m 4.382146,4.19611 q 0,0.40308 0.294555,0.63562 0.294555,0.23255 0.697629,0.23255 0.490925,0 0.950844,-0.22738 0.775144,-0.37724 0.775144,-1.23506 v -0.74931 q -0.170532,0.10852 -0.439248,0.18087 -0.268717,0.0723 -0.527098,0.10335 l -0.563272,0.0724 q -0.506427,0.0672 -0.759641,0.21187 -0.428913,0.24288 -0.428913,0.77514 z m 2.253085,-1.88101 q 0.320393,-0.0413 0.428913,-0.26872 0.06201,-0.12402 0.06201,-0.35657 0,-0.47542 -0.341063,-0.68729 -0.335896,-0.21704 -0.966347,-0.21704 -0.728635,0 -1.033525,0.39274 -0.170532,0.21704 -0.222208,0.64595 h -0.868161 q 0.02584,-1.02319 0.661456,-1.42109 0.640786,-0.40308 1.483109,-0.40308 0.976681,0 1.586461,0.37207 0.604613,0.37207 0.604613,1.15755 v 3.18842 q 0,0.1447 0.05684,0.23255 0.06201,0.0878 0.253213,0.0878 0.06201,0 0.139526,-0.005 0.07751,-0.0103 0.165364,-0.0258 v 0.6873 q -0.21704,0.062 -0.330728,0.0775 -0.113688,0.0155 -0.310057,0.0155 -0.48059,0 -0.69763,-0.34106 -0.113688,-0.18087 -0.160197,-0.5116 -0.284219,0.37207 -0.816485,0.64596 -0.532265,0.27388 -1.173051,0.27388 -0.769976,0 -1.260901,-0.46508 -0.485757,-0.47026 -0.485757,-1.17306 0,-0.76997 0.48059,-1.19372 0.480589,-0.42374 1.260901,-0.52193 z m -0.769976,-2.3151 z m 3.875719,-1.41076 h 0.940508 v 1.54512 h 0.883664 v 0.75964 h -0.883664 v 3.61217 q 0,0.28939 0.196369,0.38757 0.108521,0.0569 0.361734,0.0569 0.06718,0 0.144694,0 0.07751,-0.005 0.180867,-0.0155 v 0.73381 q -0.160197,0.0465 -0.335896,0.0672 -0.170532,0.0207 -0.372069,0.0207 -0.651121,0 -0.883664,-0.33073 -0.232543,-0.3359 -0.232543,-0.86816 v -3.66385 h -0.749306 v -0.75964 h 0.749306 z m 3.684517,1.54512 v 3.67418 q 0,0.42375 0.13436,0.69246 0.24805,0.4961 0.925,0.4961 0.97152,0 1.32292,-0.86817 0.1912,-0.46508 0.1912,-1.2764 v -2.71817 h 0.93017 v 5.53453 h -0.87849 l 0.0103,-0.81649 q -0.18087,0.31523 -0.44958,0.53227 -0.53227,0.43408 -1.29191,0.43408 -1.18339,0 -1.6123,-0.79065 -0.23254,-0.42374 -0.23254,-1.13171 v -3.76203 z m 1.2764,-0.13436 z m 3.7052,0.13436 h 0.88366 v 0.95601 q 0.10852,-0.27905 0.53227,-0.67696 0.42374,-0.40307 0.97668,-0.40307 0.0258,0 0.0879,0.005 0.062,0.005 0.21187,0.0207 v 0.98185 q -0.0827,-0.0155 -0.15503,-0.0207 -0.0672,-0.005 -0.14986,-0.005 -0.7028,0 -1.08004,0.45475 -0.37723,0.44958 -0.37723,1.03869 v 3.18326 h -0.93017 z m 5.80324,-0.12402 q 0.58911,0 1.14205,0.27905 0.55293,0.27388 0.84232,0.71313 0.27905,0.41858 0.37207,0.97668 0.0827,0.38241 0.0827,1.21956 h -4.05659 q 0.0258,0.84233 0.39791,1.35392 0.37207,0.50643 1.15238,0.50643 0.72864,0 1.16272,-0.48059 0.24804,-0.27905 0.3514,-0.64596 h 0.91467 q -0.0362,0.30489 -0.24288,0.68213 -0.20154,0.37207 -0.45475,0.60978 -0.42375,0.41341 -1.04903,0.55811 -0.3359,0.0827 -0.75964,0.0827 -1.03353,0 -1.75183,-0.74931 -0.7183,-0.75447 -0.7183,-2.10839 0,-1.33325 0.72347,-2.16524 0.72347,-0.83198 1.89135,-0.83198 z m 1.48311,2.44945 q -0.0568,-0.60461 -0.26355,-0.96634 -0.3824,-0.6718 -1.2764,-0.6718 -0.64079,0 -1.07487,0.46509 -0.43408,0.45992 -0.45992,1.17305 z m -1.57096,-2.45979 z m 3.35379,7.82896 q 0.82165,-1.60197 1.05936,-2.33577 0.36174,-1.11104 0.36174,-2.60449 0,-1.49344 -0.41858,-2.73367 -0.25838,-0.76481 -1.01802,-2.20141 h 0.62528 q 0.79581,1.27124 0.96118,1.57096 0.17053,0.29455 0.3669,0.81648 0.24805,0.64596 0.3514,1.27641 0.10852,0.63045 0.10852,1.21439 0,1.52962 -0.48576,2.72851 -0.30489,0.76997 -1.26607,2.26859 z"
       id="text2"
       style="font-size:10.5833px;font-family:Helvetica;-inkscape-font-specification:Helvetica;stroke-width:0.2794"
       aria-label="(large feature)" />
    <g
       id="text2-2"
       style="font-size:10.5833px;font-family:Helvetica;-inkscape-font-specification:Helvetica;stroke-width:0.2794"
       aria-label="release&#10;day">
      <path
         d="m 216.75222,164.30626 h 0.88366 v 0.95601 q 0.10852,-0.27905 0.53227,-0.67696 0.42374,-0.40307 0.97668,-0.40307 0.0258,0 0.0878,0.005 0.062,0.005 0.21187,0.0207 v 0.98185 q -0.0827,-0.0155 -0.15503,-0.0207 -0.0672,-0.005 -0.14986,-0.005 -0.7028,0 -1.08004,0.45475 -0.37723,0.44958 -0.37723,1.03869 v 3.18326 h -0.93017 z m 5.80324,-0.12402 q 0.58911,0 1.14205,0.27905 0.55293,0.27388 0.84232,0.71313 0.27905,0.41858 0.37207,0.97668 0.0827,0.38241 0.0827,1.21956 h -4.05659 q 0.0258,0.84233 0.39791,1.35392 0.37207,0.50643 1.15238,0.50643 0.72864,0 1.16272,-0.48059 0.24804,-0.27905 0.3514,-0.64595 h 0.91467 q -0.0362,0.30489 -0.24288,0.68212 -0.20154,0.37207 -0.45475,0.60978 -0.42375,0.41341 -1.04903,0.55811 -0.3359,0.0827 -0.75964,0.0827 -1.03353,0 -1.75183,-0.74931 -0.7183,-0.75447 -0.7183,-2.10839 0,-1.33325 0.72347,-2.16523 0.72347,-0.83199 1.89135,-0.83199 z m 1.48311,2.44945 q -0.0568,-0.60461 -0.26355,-0.96634 -0.3824,-0.67179 -1.2764,-0.67179 -0.64079,0 -1.07487,0.46508 -0.43408,0.45992 -0.45992,1.17305 z m -1.57096,-2.45979 z m 3.69485,-1.92235 h 0.93018 v 7.59124 h -0.93018 z m 4.6302,1.93269 q 0.58911,0 1.14204,0.27905 0.55294,0.27388 0.84233,0.71313 0.27905,0.41858 0.37207,0.97668 0.0827,0.38241 0.0827,1.21956 h -4.05659 q 0.0258,0.84233 0.39791,1.35392 0.37207,0.50643 1.15238,0.50643 0.72863,0 1.16271,-0.48059 0.24805,-0.27905 0.3514,-0.64595 h 0.91467 q -0.0362,0.30489 -0.24288,0.68212 -0.20153,0.37207 -0.45475,0.60978 -0.42374,0.41341 -1.04903,0.55811 -0.33589,0.0827 -0.75964,0.0827 -1.03352,0 -1.75182,-0.74931 -0.7183,-0.75447 -0.7183,-2.10839 0,-1.33325 0.72347,-2.16523 0.72346,-0.83199 1.89135,-0.83199 z m 1.48311,2.44945 q -0.0568,-0.60461 -0.26355,-0.96634 -0.38241,-0.67179 -1.27641,-0.67179 -0.64078,0 -1.07486,0.46508 -0.43408,0.45992 -0.45992,1.17305 z m -1.57096,-2.45979 z m 4.38215,4.19612 q 0,0.40307 0.29455,0.63561 0.29455,0.23255 0.69763,0.23255 0.49092,0 0.95084,-0.22738 0.77515,-0.37723 0.77515,-1.23506 v -0.74931 q -0.17053,0.10852 -0.43925,0.18087 -0.26872,0.0724 -0.5271,0.10335 l -0.56327,0.0724 q -0.50643,0.0672 -0.75964,0.21187 -0.42891,0.24288 -0.42891,0.77515 z m 2.25308,-1.88102 q 0.32039,-0.0413 0.42891,-0.26872 0.062,-0.12402 0.062,-0.35656 0,-0.47542 -0.34107,-0.6873 -0.33589,-0.21704 -0.96634,-0.21704 -0.72864,0 -1.03353,0.39274 -0.17053,0.21704 -0.22221,0.64596 h -0.86816 q 0.0258,-1.02319 0.66146,-1.4211 0.64078,-0.40308 1.48311,-0.40308 0.97668,0 1.58646,0.37207 0.60461,0.37207 0.60461,1.15755 v 3.18843 q 0,0.14469 0.0568,0.23254 0.062,0.0879 0.25322,0.0879 0.062,0 0.13952,-0.005 0.0775,-0.0103 0.16537,-0.0258 v 0.6873 q -0.21704,0.062 -0.33073,0.0775 -0.11369,0.0155 -0.31006,0.0155 -0.48059,0 -0.69763,-0.34107 -0.11369,-0.18087 -0.16019,-0.51159 -0.28422,0.37207 -0.81649,0.64595 -0.53226,0.27388 -1.17305,0.27388 -0.76998,0 -1.2609,-0.46508 -0.48576,-0.47026 -0.48576,-1.17305 0,-0.76998 0.48059,-1.19373 0.48059,-0.42374 1.2609,-0.52193 z m -0.76998,-2.3151 z m 4.24262,3.93257 q 0.0413,0.46508 0.23255,0.71313 0.3514,0.44958 1.21956,0.44958 0.51676,0 0.9095,-0.2222 0.39274,-0.22738 0.39274,-0.69763 0,-0.35657 -0.31523,-0.54261 -0.20153,-0.11368 -0.79581,-0.26354 l -0.73897,-0.18604 q -0.70797,-0.1757 -1.04386,-0.39274 -0.59945,-0.37724 -0.59945,-1.04386 0,-0.78548 0.56327,-1.27124 0.56844,-0.48575 1.52445,-0.48575 1.25057,0 1.80351,0.7338 0.34623,0.46509 0.33589,1.00252 h -0.87849 q -0.0258,-0.31522 -0.22221,-0.57361 -0.3204,-0.3669 -1.11104,-0.3669 -0.5271,0 -0.80098,0.20154 -0.26872,0.20154 -0.26872,0.53227 0,0.36173 0.35657,0.57877 0.2067,0.12919 0.60978,0.22738 l 0.61494,0.14986 q 1.00252,0.24287 1.34359,0.47025 0.5426,0.35657 0.5426,1.12138 0,0.73897 -0.56327,1.2764 -0.55811,0.53743 -1.70532,0.53743 -1.23506,0 -1.75183,-0.5581 -0.51159,-0.56327 -0.54777,-1.39009 z m 1.37459,-3.93257 z m 5.66889,0.0103 q 0.58911,0 1.14205,0.27905 0.55293,0.27388 0.84232,0.71313 0.27905,0.41858 0.37207,0.97668 0.0827,0.38241 0.0827,1.21956 h -4.05659 q 0.0258,0.84233 0.39791,1.35392 0.37207,0.50643 1.15238,0.50643 0.72864,0 1.16272,-0.48059 0.24804,-0.27905 0.3514,-0.64595 h 0.91467 q -0.0362,0.30489 -0.24288,0.68212 -0.20154,0.37207 -0.45475,0.60978 -0.42375,0.41341 -1.04903,0.55811 -0.3359,0.0827 -0.75964,0.0827 -1.03353,0 -1.75183,-0.74931 -0.7183,-0.75447 -0.7183,-2.10839 0,-1.33325 0.72347,-2.16523 0.72347,-0.83199 1.89135,-0.83199 z m 1.48311,2.44945 q -0.0568,-0.60461 -0.26355,-0.96634 -0.3824,-0.67179 -1.2764,-0.67179 -0.64079,0 -1.07487,0.46508 -0.43408,0.45992 -0.45992,1.17305 z m -1.57096,-2.45979 z"
         id="path9" />
      <path
         d="m 217.31549,180.36725 q 0,0.88883 0.37723,1.48827 0.37724,0.59945 1.20923,0.59945 0.64595,0 1.05936,-0.55294 0.41858,-0.5581 0.41858,-1.5968 0,-1.04902 -0.42891,-1.55028 -0.42892,-0.50643 -1.05937,-0.50643 -0.70279,0 -1.14204,0.53743 -0.43408,0.53743 -0.43408,1.5813 z m 1.40042,-2.93005 q 0.63562,0 1.06453,0.26872 0.24805,0.15503 0.56328,0.5426 v -2.79569 h 0.894 v 7.61708 h -0.83716 v -0.76997 q -0.32556,0.51159 -0.76998,0.73897 -0.44441,0.22737 -1.01802,0.22737 -0.925,0 -1.60196,-0.77514 -0.67696,-0.78031 -0.67696,-2.07222 0,-1.20922 0.61495,-2.09289 0.62011,-0.88883 1.76732,-0.88883 z m 4.60953,4.15994 q 0,0.40308 0.29455,0.63562 0.29456,0.23254 0.69763,0.23254 0.49093,0 0.95084,-0.22737 0.77515,-0.37724 0.77515,-1.23507 v -0.7493 q -0.17053,0.10852 -0.43925,0.18086 -0.26872,0.0724 -0.5271,0.10336 l -0.56327,0.0723 q -0.50643,0.0672 -0.75964,0.21188 -0.42891,0.24288 -0.42891,0.77514 z m 2.25308,-1.88102 q 0.32039,-0.0413 0.42891,-0.26871 0.062,-0.12403 0.062,-0.35657 0,-0.47542 -0.34107,-0.68729 -0.33589,-0.21704 -0.96634,-0.21704 -0.72864,0 -1.03353,0.39274 -0.17053,0.21704 -0.22221,0.64595 h -0.86816 q 0.0258,-1.02319 0.66146,-1.4211 0.64078,-0.40307 1.48311,-0.40307 0.97668,0 1.58646,0.37207 0.60461,0.37207 0.60461,1.15755 v 3.18842 q 0,0.14469 0.0568,0.23254 0.062,0.0879 0.25322,0.0879 0.062,0 0.13952,-0.005 0.0775,-0.0103 0.16537,-0.0258 v 0.68729 q -0.21704,0.062 -0.33073,0.0775 -0.11369,0.0155 -0.31006,0.0155 -0.48059,0 -0.69763,-0.34106 -0.11368,-0.18087 -0.16019,-0.5116 -0.28422,0.37207 -0.81649,0.64595 -0.53226,0.27389 -1.17305,0.27389 -0.76998,0 -1.2609,-0.46509 -0.48576,-0.47025 -0.48576,-1.17305 0,-0.76998 0.48059,-1.19372 0.48059,-0.42375 1.2609,-0.52193 z m -0.76997,-2.31509 z m 7.14682,0.13436 h 1.02836 q -0.19637,0.53226 -0.87333,2.42878 -0.50643,1.42627 -0.84749,2.32543 -0.80615,2.11873 -1.13688,2.58382 -0.33073,0.46508 -1.13687,0.46508 -0.19637,0 -0.30489,-0.0155 -0.10336,-0.0155 -0.25839,-0.0568 v -0.8475 q 0.24288,0.0672 0.3514,0.0827 0.10852,0.0155 0.1912,0.0155 0.25839,0 0.37724,-0.0879 0.12402,-0.0827 0.20671,-0.2067 0.0258,-0.0413 0.18603,-0.42375 0.1602,-0.3824 0.23254,-0.56844 l -2.04638,-5.69472 h 1.0542 l 1.48311,4.50617 z m -1.49861,-0.13436 z"
         id="path14" />
    </g>
    <path
       d="m 146.28441,168.93016 -0.17053,3.03857 h -0.59945 l -0.17053,-3.03857 z"
       id="text2-2-7"
       style="font-size:10.5833px;font-family:Helvetica;-inkscape-font-specification:Helvetica;stroke-width:0.2794"
       aria-label="'" />
    <path
       style="fill:#1a1a1a;stroke:#1a1a1a;stroke-width:0.2794"
       d="m 221.31929,147.82577 v 8.13601"
       id="path8" />
  </g>
</svg>
